<svg width="1122" height="288" viewBox="0 0 1122 288" fill="none" xmlns="http://www.w3.org/2000/svg">
<path d="M16 172V156H0V76H16V60H96V76H112V156H96V172H16ZM32 156H80V76H32V156Z" fill="black"/>
<path d="M128 172V92H224V108H240V172H208V108H160V172H128Z" fill="black"/>
<path d="M272 172V156H304V76H288V60H336V156H368V172H272Z" fill="black"/>
<path d="M400 188V172H464V156H400V140H384V92H416V140H464V92H496V172H480V188H400Z" fill="black"/>
<path d="M581.25 218.75V187.5H550V0H612.5V187.5H706.25V0H768.75V187.5H737.5V218.75H581.25Z" fill="#2563EB"/>
<path d="M800 218.75V187.5H956.25V156.25H831.25V125H800V93.75H831.25V62.5H987.5V93.75H862.5V125H987.5V156.25H1018.75V187.5H987.5V218.75H800Z" fill="#2563EB"/>
<path d="M550 275H1050V287.5H550V275Z" fill="#2563EB"/>
<path d="M1103 51.3636L1088.18 17.9091H1094.18L1104.55 42.4545L1114.91 17.9091H1120.91L1106.09 51.3636H1103ZM1087.09 51.3636V17.9091H1092.91V51.3636H1087.09ZM1116.18 51.3636V17.9091H1122V51.3636H1116.18ZM1065.27 51.3636V20.8182H1071.09V51.3636H1065.27ZM1055.09 23V17.9091H1081.27V23H1055.09Z" fill="black"/>
</svg>
