<svg width="14" height="8" viewBox="0 0 14 8" fill="none" xmlns="http://www.w3.org/2000/svg">
<path d="M13.6949 7.69451C13.8907 7.4984 14.0006 7.23262 14.0006 6.95551C14.0006 6.67841 13.8907 6.41262 13.6949 6.21651L7.79088 0.306513C7.56288 0.0785134 7.25488 -0.0234866 6.95688 0.0045134C6.68688 0.00451343 6.41788 0.105514 6.21288 0.310514L0.305877 6.21751C0.208895 6.3145 0.131966 6.42963 0.07948 6.55634C0.0269942 6.68305 -2.01278e-05 6.81886 -2.01185e-05 6.95601C-2.01092e-05 7.09317 0.0269943 7.22898 0.0794801 7.35569C0.131966 7.4824 0.208895 7.59753 0.305877 7.69451C0.402858 7.7915 0.517992 7.86843 0.644704 7.92091C0.771416 7.9734 0.907225 8.00041 1.04438 8.00041C1.18153 8.00041 1.31734 7.9734 1.44405 7.92091C1.57076 7.86843 1.6859 7.7915 1.78288 7.69451L7.00288 2.47451L12.2189 7.69451C12.3157 7.79151 12.4308 7.86846 12.5574 7.92096C12.6841 7.97347 12.8198 8.00049 12.9569 8.00049C13.094 8.00049 13.2297 7.97347 13.3563 7.92096C13.483 7.86846 13.598 7.79151 13.6949 7.69451Z" fill="black"/>
</svg>
