<svg width="14" height="8" viewBox="0 0 14 8" fill="none" xmlns="http://www.w3.org/2000/svg">
<path d="M0.305733 0.305975C0.109958 0.502086 0 0.767869 0 1.04498C0 1.32208 0.109958 1.58786 0.305733 1.78398L6.20973 7.69398C6.43773 7.92198 6.74573 8.02398 7.04373 7.99598C7.31373 7.99598 7.58273 7.89497 7.78773 7.68997L13.6947 1.78298C13.7917 1.68599 13.8686 1.57086 13.9211 1.44415C13.9736 1.31744 14.0006 1.18163 14.0006 1.04448C14.0006 0.907323 13.9736 0.771514 13.9211 0.644802C13.8686 0.51809 13.7917 0.402956 13.6947 0.305975C13.5978 0.208994 13.4826 0.132064 13.3559 0.0795784C13.2292 0.0270925 13.0934 7.81986e-05 12.9562 7.82013e-05C12.8191 7.8204e-05 12.6833 0.0270925 12.5566 0.0795784C12.4298 0.132064 12.3147 0.208994 12.2177 0.305975L6.99773 5.52598L1.78173 0.305975C1.68486 0.208977 1.56982 0.132027 1.44319 0.079525C1.31656 0.027023 1.18082 0 1.04373 0C0.906649 0 0.770909 0.027023 0.644276 0.079525C0.517644 0.132027 0.402603 0.208977 0.305733 0.305975Z" fill="black"/>
</svg>
