<svg width="18" height="15" viewBox="0 0 18 15" fill="none" xmlns="http://www.w3.org/2000/svg">
<path d="M14.4643 5.89286C14.6064 5.89286 14.7426 5.83642 14.8431 5.73595C14.9436 5.63548 15 5.49922 15 5.35714V1.60714C15 1.1809 14.8307 0.772119 14.5293 0.470721C14.2279 0.169324 13.8191 0 13.3929 0H4.82143C4.39519 0 3.9864 0.169324 3.68501 0.470721C3.38361 0.772119 3.21429 1.1809 3.21429 1.60714V4.82143H1.60714C1.1809 4.82143 0.772119 4.99075 0.470721 5.29215C0.169323 5.59355 0 6.00233 0 6.42857L0 12.8571C0 13.4255 0.225765 13.9705 0.627628 14.3724C1.02949 14.7742 1.57454 15 2.14286 15H13.3929C13.8191 15 14.2279 14.8307 14.5293 14.5293C14.8307 14.2279 15 13.8191 15 13.3929V10.6393C15 10.4972 14.9436 10.3609 14.8431 10.2605C14.7426 10.16 14.6064 10.1036 14.4643 10.1036C14.3222 10.1036 14.1859 10.16 14.0855 10.2605C13.985 10.3609 13.9286 10.4972 13.9286 10.6393V13.3929C13.9286 13.5349 13.8721 13.6712 13.7717 13.7717C13.6712 13.8721 13.5349 13.9286 13.3929 13.9286H3.98571C4.18047 13.605 4.28413 13.2348 4.28571 12.8571V1.60714C4.28571 1.46506 4.34216 1.3288 4.44262 1.22834C4.54309 1.12787 4.67935 1.07143 4.82143 1.07143H13.3929C13.5349 1.07143 13.6712 1.12787 13.7717 1.22834C13.8721 1.3288 13.9286 1.46506 13.9286 1.60714V5.35714C13.9286 5.49922 13.985 5.63548 14.0855 5.73595C14.1859 5.83642 14.3222 5.89286 14.4643 5.89286ZM1.07143 12.8571V6.42857C1.07143 6.28649 1.12787 6.15023 1.22834 6.04976C1.3288 5.9493 1.46506 5.89286 1.60714 5.89286H3.21429V12.8571C3.21429 13.1413 3.1014 13.4138 2.90047 13.6148C2.69954 13.8157 2.42702 13.9286 2.14286 13.9286C1.8587 13.9286 1.58617 13.8157 1.38524 13.6148C1.18431 13.4138 1.07143 13.1413 1.07143 12.8571Z" fill="#10B981"/>
<path d="M12.8571 4.82127V2.67841C12.8571 2.53633 12.8006 2.40007 12.7001 2.29961C12.5997 2.19914 12.4634 2.1427 12.3213 2.1427H5.89277C5.75069 2.1427 5.61443 2.19914 5.51396 2.29961C5.4135 2.40007 5.35706 2.53633 5.35706 2.67841V4.82127C5.35706 4.96335 5.4135 5.09961 5.51396 5.20008C5.61443 5.30054 5.75069 5.35699 5.89277 5.35699H12.3213C12.4634 5.35699 12.5997 5.30054 12.7001 5.20008C12.8006 5.09961 12.8571 4.96335 12.8571 4.82127ZM11.7856 4.28556H6.42848V3.21413H11.7856V4.28556ZM8.57134 6.42841H5.89277C5.75069 6.42841 5.61443 6.48486 5.51396 6.58532C5.4135 6.68579 5.35706 6.82205 5.35706 6.96413C5.35706 7.10621 5.4135 7.24247 5.51396 7.34294C5.61443 7.4434 5.75069 7.49984 5.89277 7.49984H8.57134C8.71342 7.49984 8.84968 7.4434 8.95015 7.34294C9.05061 7.24247 9.10706 7.10621 9.10706 6.96413C9.10706 6.82205 9.05061 6.68579 8.95015 6.58532C8.84968 6.48486 8.71342 6.42841 8.57134 6.42841ZM5.89277 11.7856H8.57134C8.71342 11.7856 8.84968 11.7291 8.95015 11.6287C9.05061 11.5282 9.10706 11.3919 9.10706 11.2498C9.10706 11.1078 9.05061 10.9715 8.95015 10.871C8.84968 10.7706 8.71342 10.7141 8.57134 10.7141H5.89277C5.75069 10.7141 5.61443 10.7706 5.51396 10.871C5.4135 10.9715 5.35706 11.1078 5.35706 11.2498C5.35706 11.3919 5.4135 11.5282 5.51396 11.6287C5.61443 11.7291 5.75069 11.7856 5.89277 11.7856ZM5.89277 9.6427H8.03563C8.17771 9.6427 8.31397 9.58626 8.41443 9.48579C8.5149 9.38533 8.57134 9.24907 8.57134 9.10699C8.57134 8.96491 8.5149 8.82864 8.41443 8.72818C8.31397 8.62771 8.17771 8.57127 8.03563 8.57127H5.89277C5.75069 8.57127 5.61443 8.62771 5.51396 8.72818C5.4135 8.82864 5.35706 8.96491 5.35706 9.10699C5.35706 9.24907 5.4135 9.38533 5.51396 9.48579C5.61443 9.58626 5.75069 9.6427 5.89277 9.6427Z" fill="#10B981"/>
<path d="M16.6072 5.8927C16.4651 5.8927 16.3289 5.94914 16.2284 6.04961C16.1279 6.15007 16.0715 6.28633 16.0715 6.42841V6.56234L13.3608 7.33377C13.326 7.22723 13.2588 7.13426 13.1684 7.06796C13.0781 7.00165 12.9693 6.96533 12.8572 6.96413H11.7858C11.296 6.96612 10.8218 7.13579 10.4419 7.44491C10.0621 7.75402 9.79956 8.18392 9.6981 8.66303C9.59665 9.14214 9.66236 9.64155 9.8843 10.0781C10.1062 10.5147 10.471 10.862 10.9179 11.0623L11.2501 12.4498C11.2842 12.5919 11.3733 12.7146 11.4979 12.791C11.6225 12.8673 11.7723 12.8911 11.9143 12.857C12.0564 12.8229 12.1791 12.7337 12.2555 12.6092C12.3318 12.4846 12.3556 12.3348 12.3215 12.1927L12.0697 11.2498H12.8572C12.9693 11.2486 13.0781 11.2123 13.1684 11.146C13.2588 11.0797 13.326 10.9867 13.3608 10.8802L16.0715 11.6516V11.7856C16.0715 11.9276 16.1279 12.0639 16.2284 12.1644C16.3289 12.2648 16.4651 12.3213 16.6072 12.3213C16.7493 12.3213 16.8855 12.2648 16.986 12.1644C17.0865 12.0639 17.1429 11.9276 17.1429 11.7856V6.42841C17.1429 6.28633 17.0865 6.15007 16.986 6.04961C16.8855 5.94914 16.7493 5.8927 16.6072 5.8927ZM11.7858 10.1784C11.5016 10.1784 11.2291 10.0655 11.0282 9.8646C10.8272 9.66367 10.7143 9.39115 10.7143 9.10699C10.7143 8.82283 10.8272 8.5503 11.0282 8.34937C11.2291 8.14844 11.5016 8.03556 11.7858 8.03556H12.3215V10.1784H11.7858ZM13.3929 9.77663V8.43734L16.0715 7.67663V10.5373L13.3929 9.77663Z" fill="#10B981"/>
</svg>
