<svg width="18" height="15" viewBox="0 0 18 15" fill="none" xmlns="http://www.w3.org/2000/svg">
<path d="M14.4643 5.89286C14.6064 5.89286 14.7426 5.83642 14.8431 5.73595C14.9436 5.63548 15 5.49922 15 5.35714V1.60714C15 1.1809 14.8307 0.772119 14.5293 0.470721C14.2279 0.169324 13.8191 0 13.3929 0H4.82143C4.39519 0 3.9864 0.169324 3.68501 0.470721C3.38361 0.772119 3.21429 1.1809 3.21429 1.60714V4.82143H1.60714C1.1809 4.82143 0.772119 4.99075 0.470721 5.29215C0.169323 5.59355 0 6.00233 0 6.42857L0 12.8571C0 13.4255 0.225765 13.9705 0.627628 14.3724C1.02949 14.7742 1.57454 15 2.14286 15H13.3929C13.8191 15 14.2279 14.8307 14.5293 14.5293C14.8307 14.2279 15 13.8191 15 13.3929V10.6393C15 10.4972 14.9436 10.3609 14.8431 10.2605C14.7426 10.16 14.6064 10.1036 14.4643 10.1036C14.3222 10.1036 14.1859 10.16 14.0855 10.2605C13.985 10.3609 13.9286 10.4972 13.9286 10.6393V13.3929C13.9286 13.5349 13.8721 13.6712 13.7717 13.7717C13.6712 13.8721 13.5349 13.9286 13.3929 13.9286H3.98571C4.18047 13.605 4.28413 13.2348 4.28571 12.8571V1.60714C4.28571 1.46506 4.34216 1.3288 4.44262 1.22834C4.54309 1.12787 4.67935 1.07143 4.82143 1.07143H13.3929C13.5349 1.07143 13.6712 1.12787 13.7717 1.22834C13.8721 1.3288 13.9286 1.46506 13.9286 1.60714V5.35714C13.9286 5.49922 13.985 5.63548 14.0855 5.73595C14.1859 5.83642 14.3222 5.89286 14.4643 5.89286ZM1.07143 12.8571V6.42857C1.07143 6.28649 1.12787 6.15023 1.22834 6.04976C1.3288 5.9493 1.46506 5.89286 1.60714 5.89286H3.21429V12.8571C3.21429 13.1413 3.1014 13.4138 2.90047 13.6148C2.69954 13.8157 2.42702 13.9286 2.14286 13.9286C1.8587 13.9286 1.58617 13.8157 1.38524 13.6148C1.18431 13.4138 1.07143 13.1413 1.07143 12.8571Z" fill="#1F2937"/>
<path d="M12.8571 4.82133V2.67848C12.8571 2.5364 12.8006 2.40013 12.7001 2.29967C12.5997 2.1992 12.4634 2.14276 12.3213 2.14276H5.89277C5.75069 2.14276 5.61443 2.1992 5.51396 2.29967C5.4135 2.40013 5.35706 2.5364 5.35706 2.67848V4.82133C5.35706 4.96341 5.4135 5.09967 5.51396 5.20014C5.61443 5.30061 5.75069 5.35705 5.89277 5.35705H12.3213C12.4634 5.35705 12.5997 5.30061 12.7001 5.20014C12.8006 5.09967 12.8571 4.96341 12.8571 4.82133ZM11.7856 4.28562H6.42848V3.21419H11.7856V4.28562ZM8.57134 6.42848H5.89277C5.75069 6.42848 5.61443 6.48492 5.51396 6.58538C5.4135 6.68585 5.35706 6.82211 5.35706 6.96419C5.35706 7.10627 5.4135 7.24253 5.51396 7.343C5.61443 7.44346 5.75069 7.4999 5.89277 7.4999H8.57134C8.71342 7.4999 8.84968 7.44346 8.95015 7.343C9.05061 7.24253 9.10706 7.10627 9.10706 6.96419C9.10706 6.82211 9.05061 6.68585 8.95015 6.58538C8.84968 6.48492 8.71342 6.42848 8.57134 6.42848ZM5.89277 11.7856H8.57134C8.71342 11.7856 8.84968 11.7292 8.95015 11.6287C9.05061 11.5282 9.10706 11.392 9.10706 11.2499C9.10706 11.1078 9.05061 10.9716 8.95015 10.8711C8.84968 10.7706 8.71342 10.7142 8.57134 10.7142H5.89277C5.75069 10.7142 5.61443 10.7706 5.51396 10.8711C5.4135 10.9716 5.35706 11.1078 5.35706 11.2499C5.35706 11.392 5.4135 11.5282 5.51396 11.6287C5.61443 11.7292 5.75069 11.7856 5.89277 11.7856ZM5.89277 9.64276H8.03563C8.17771 9.64276 8.31397 9.58632 8.41443 9.48586C8.5149 9.38539 8.57134 9.24913 8.57134 9.10705C8.57134 8.96497 8.5149 8.82871 8.41443 8.72824C8.31397 8.62777 8.17771 8.57133 8.03563 8.57133H5.89277C5.75069 8.57133 5.61443 8.62777 5.51396 8.72824C5.4135 8.82871 5.35706 8.96497 5.35706 9.10705C5.35706 9.24913 5.4135 9.38539 5.51396 9.48586C5.61443 9.58632 5.75069 9.64276 5.89277 9.64276Z" fill="#1F2937"/>
<path d="M16.6072 5.89276C16.4651 5.89276 16.3289 5.9492 16.2284 6.04967C16.1279 6.15013 16.0715 6.2864 16.0715 6.42848V6.5624L13.3608 7.33383C13.326 7.22729 13.2588 7.13433 13.1684 7.06802C13.0781 7.00171 12.9693 6.9654 12.8572 6.96419H11.7858C11.296 6.96618 10.8218 7.13585 10.4419 7.44497C10.0621 7.75408 9.79956 8.18398 9.6981 8.66309C9.59665 9.1422 9.66236 9.64161 9.8843 10.0782C10.1062 10.5147 10.471 10.8621 10.9179 11.0624L11.2501 12.4499C11.2842 12.592 11.3733 12.7147 11.4979 12.7911C11.6225 12.8674 11.7723 12.8911 11.9143 12.857C12.0564 12.8229 12.1791 12.7338 12.2555 12.6092C12.3318 12.4846 12.3556 12.3348 12.3215 12.1928L12.0697 11.2499H12.8572C12.9693 11.2487 13.0781 11.2124 13.1684 11.1461C13.2588 11.0798 13.326 10.9868 13.3608 10.8803L16.0715 11.6517V11.7856C16.0715 11.9277 16.1279 12.064 16.2284 12.1644C16.3289 12.2649 16.4651 12.3213 16.6072 12.3213C16.7493 12.3213 16.8855 12.2649 16.986 12.1644C17.0865 12.064 17.1429 11.9277 17.1429 11.7856V6.42848C17.1429 6.2864 17.0865 6.15013 16.986 6.04967C16.8855 5.9492 16.7493 5.89276 16.6072 5.89276ZM11.7858 10.1785C11.5016 10.1785 11.2291 10.0656 11.0282 9.86466C10.8272 9.66373 10.7143 9.39121 10.7143 9.10705C10.7143 8.82289 10.8272 8.55036 11.0282 8.34943C11.2291 8.1485 11.5016 8.03562 11.7858 8.03562H12.3215V10.1785H11.7858ZM13.3929 9.77669V8.4374L16.0715 7.67669V10.5374L13.3929 9.77669Z" fill="#1F2937"/>
</svg>
