<svg width="11" height="20" viewBox="0 0 11 20" fill="none" xmlns="http://www.w3.org/2000/svg">
<mask id="path-1-inside-1_112_655" fill="white">
<path d="M4.29721 11.8936L2.18273 19.7323L2.74651 20L11 8.5937L10.7429 8.0915H6.66882L7.8824 0.218621L7.30117 0L0 11.4063L0.267286 11.8936H4.29721ZM7.02594 1.60639L5.98505 8.36019L6.29868 8.72519H10.122L3.24616 18.2276L5.01812 11.6591L4.71147 11.2599H0.846935L7.02594 1.60639Z"/>
</mask>
<path d="M4.29721 11.8936L6.22819 12.4145L6.9082 9.89361H4.29721V11.8936ZM2.18273 19.7323L0.251751 19.2114L-0.182955 20.8229L1.32479 21.5389L2.18273 19.7323ZM2.74651 20L1.88856 21.8066L3.39148 22.5203L4.36681 21.1724L2.74651 20ZM11 8.5937L12.6203 9.76614L13.3388 8.77317L12.7802 7.68221L11 8.5937ZM10.7429 8.0915L12.5231 7.18001L11.9658 6.0915H10.7429V8.0915ZM6.66882 8.0915L4.69217 7.78681L4.33691 10.0915H6.66882V8.0915ZM7.8824 0.218621L9.85906 0.523316L10.1065 -1.08164L8.5865 -1.65334L7.8824 0.218621ZM7.30117 0L8.00527 -1.87196L6.48967 -2.44203L5.6167 -1.07823L7.30117 0ZM0 11.4063L-1.68447 10.3281L-2.32426 11.3276L-1.75354 12.3681L0 11.4063ZM0.267286 11.8936L-1.48625 12.8554L-0.916811 13.8936H0.267286V11.8936ZM7.02594 1.60639L9.00261 1.91103L5.34146 0.528188L7.02594 1.60639ZM5.98505 8.36019L4.00839 8.05554L3.86816 8.96539L4.46813 9.66362L5.98505 8.36019ZM6.29868 8.72519L4.78176 10.0286L5.38029 10.7252H6.29868V8.72519ZM10.122 8.72519L11.7423 9.89762L14.0378 6.72519H10.122V8.72519ZM3.24616 18.2276L1.31519 17.7067L4.86647 19.4L3.24616 18.2276ZM5.01812 11.6591L6.94909 12.1801L7.20669 11.2252L6.60422 10.4408L5.01812 11.6591ZM4.71147 11.2599L6.29757 10.0416L5.69714 9.25992H4.71147V11.2599ZM0.846935 11.2599L-0.837549 10.1817L-2.80783 13.2599H0.846935V11.2599ZM4.29721 11.8936L2.36623 11.3727L0.251751 19.2114L2.18273 19.7323L4.11371 20.2532L6.22819 12.4145L4.29721 11.8936ZM2.18273 19.7323L1.32479 21.5389L1.88856 21.8066L2.74651 20L3.60445 18.1934L3.04067 17.9256L2.18273 19.7323ZM2.74651 20L4.36681 21.1724L12.6203 9.76614L11 8.5937L9.37969 7.42126L1.1262 18.8276L2.74651 20ZM11 8.5937L12.7802 7.68221L12.5231 7.18001L10.7429 8.0915L8.96265 9.003L9.21978 9.50519L11 8.5937ZM10.7429 8.0915V6.0915H6.66882V8.0915V10.0915H10.7429V8.0915ZM6.66882 8.0915L8.64547 8.3962L9.85906 0.523316L7.8824 0.218621L5.90575 -0.0860743L4.69217 7.78681L6.66882 8.0915ZM7.8824 0.218621L8.5865 -1.65334L8.00527 -1.87196L7.30117 0L6.59706 1.87196L7.1783 2.09058L7.8824 0.218621ZM7.30117 0L5.6167 -1.07823L-1.68447 10.3281L0 11.4063L1.68447 12.4845L8.98563 1.07823L7.30117 0ZM0 11.4063L-1.75354 12.3681L-1.48625 12.8554L0.267286 11.8936L2.02083 10.9318L1.75354 10.4445L0 11.4063ZM0.267286 11.8936V13.8936H4.29721V11.8936V9.89361H0.267286V11.8936ZM7.02594 1.60639L5.04928 1.30175L4.00839 8.05554L5.98505 8.36019L7.96171 8.66483L9.00261 1.91103L7.02594 1.60639ZM5.98505 8.36019L4.46813 9.66362L4.78176 10.0286L6.29868 8.72519L7.81561 7.42175L7.50197 7.05675L5.98505 8.36019ZM6.29868 8.72519V10.7252H10.122V8.72519V6.72519H6.29868V8.72519ZM10.122 8.72519L8.50164 7.55276L1.62585 17.0552L3.24616 18.2276L4.86647 19.4L11.7423 9.89762L10.122 8.72519ZM3.24616 18.2276L5.17713 18.7485L6.94909 12.1801L5.01812 11.6591L3.08715 11.1382L1.31519 17.7067L3.24616 18.2276ZM5.01812 11.6591L6.60422 10.4408L6.29757 10.0416L4.71147 11.2599L3.12538 12.4782L3.43203 12.8775L5.01812 11.6591ZM4.71147 11.2599V9.25992H0.846935V11.2599V13.2599H4.71147V11.2599ZM0.846935 11.2599L2.53142 12.3381L8.71043 2.68459L7.02594 1.60639L5.34146 0.528188L-0.837549 10.1817L0.846935 11.2599Z" fill="black" mask="url(#path-1-inside-1_112_655)"/>
</svg>
