<svg width="16" height="16" viewBox="0 0 16 16" fill="none" xmlns="http://www.w3.org/2000/svg">
<path d="M2.40004 15C2.14383 15 1.88903 14.93 1.66362 14.7914C1.46086 14.6656 1.29352 14.4902 1.1774 14.2817C1.06129 14.0732 1.00023 13.8386 1 13.6V2.39977C1 1.91397 1.25201 1.46316 1.66362 1.20835C1.86683 1.08342 2.09848 1.01221 2.33678 1.00144C2.57508 0.99066 2.81221 1.04067 3.02586 1.14675L14.2262 6.74685C14.4588 6.86334 14.6543 7.04223 14.791 7.26353C14.9276 7.48483 15 7.73978 15 7.99988C15 8.25997 14.9276 8.51492 14.791 8.73622C14.6543 8.95752 14.4588 9.13641 14.2262 9.2529L3.02586 14.853C2.82986 14.951 2.61285 15 2.40004 15Z" fill="white" stroke="#1F2937" stroke-width="2"/>
</svg>
