<svg width="16" height="16" viewBox="0 0 16 16" fill="none" xmlns="http://www.w3.org/2000/svg">
<path d="M7.75003 9.65912C8.80439 9.65912 9.65912 8.80439 9.65912 7.75003C9.65912 6.69567 8.80439 5.84094 7.75003 5.84094C6.69567 5.84094 5.84094 6.69567 5.84094 7.75003C5.84094 8.80439 6.69567 9.65912 7.75003 9.65912Z" stroke="#10B981" stroke-width="1.5" stroke-linecap="round" stroke-linejoin="round"/>
<path fill-rule="evenodd" clip-rule="evenodd" d="M12.4591 9.65909C12.3744 9.85103 12.3491 10.0639 12.3865 10.2704C12.424 10.4768 12.5224 10.6673 12.6691 10.8173L12.7073 10.8555C12.9461 11.0943 13.0803 11.4182 13.0803 11.7559C13.0803 12.0936 12.9461 12.4175 12.7073 12.6564C12.4685 12.8952 12.1446 13.0293 11.8068 13.0293C11.4691 13.0293 11.1452 12.8952 10.9064 12.6564L10.8682 12.6182C10.7182 12.4715 10.5277 12.3731 10.3213 12.3356C10.1149 12.2982 9.90194 12.3235 9.71 12.4082C9.52178 12.4888 9.36126 12.6228 9.2482 12.7935C9.13513 12.9643 9.07445 13.1643 9.07364 13.3691V13.4773C9.07364 13.8148 8.93955 14.1385 8.70086 14.3772C8.46218 14.6159 8.13846 14.75 7.80091 14.75C7.46336 14.75 7.13964 14.6159 6.90096 14.3772C6.66227 14.1385 6.52818 13.8148 6.52818 13.4773V13.42C6.52325 13.2094 6.45508 13.0051 6.33251 12.8337C6.20994 12.6623 6.03865 12.5318 5.84091 12.4591C5.64897 12.3744 5.43606 12.3491 5.22963 12.3865C5.02319 12.424 4.8327 12.5224 4.68273 12.6691L4.64455 12.7073C4.40573 12.9461 4.08183 13.0803 3.74409 13.0803C3.40635 13.0803 3.08245 12.9461 2.84364 12.7073C2.60482 12.4685 2.47066 12.1446 2.47066 11.8068C2.47066 11.4691 2.60482 11.1452 2.84364 10.9064L2.88182 10.8682C3.02852 10.7182 3.12694 10.5277 3.16437 10.3213C3.2018 10.1149 3.17653 9.90194 3.09182 9.71C3.01115 9.52178 2.87721 9.36126 2.70648 9.2482C2.53575 9.13513 2.33568 9.07445 2.13091 9.07364H2.02273C1.68518 9.07364 1.36146 8.93955 1.12277 8.70086C0.884091 8.46218 0.75 8.13846 0.75 7.80091C0.75 7.46336 0.884091 7.13964 1.12277 6.90096C1.36146 6.66227 1.68518 6.52818 2.02273 6.52818H2.08C2.29063 6.52325 2.49491 6.45508 2.66628 6.33251C2.83765 6.20994 2.96818 6.03865 3.04091 5.84091C3.12562 5.64897 3.15089 5.43606 3.11346 5.22963C3.07603 5.02319 2.97761 4.8327 2.83091 4.68273L2.79273 4.64455C2.55391 4.40573 2.41975 4.08183 2.41975 3.74409C2.41975 3.40635 2.55391 3.08245 2.79273 2.84364C3.03154 2.60482 3.35545 2.47066 3.69318 2.47066C4.03092 2.47066 4.35482 2.60482 4.59364 2.84364L4.63182 2.88182C4.7818 3.02852 4.97228 3.12694 5.17872 3.16437C5.38515 3.2018 5.59806 3.17653 5.79 3.09182H5.84091C6.02913 3.01115 6.18965 2.87721 6.30271 2.70648C6.41578 2.53575 6.47646 2.33568 6.47727 2.13091V2.02273C6.47727 1.68518 6.61136 1.36146 6.85005 1.12277C7.08873 0.884091 7.41245 0.75 7.75 0.75C8.08755 0.75 8.41127 0.884091 8.64995 1.12277C8.88864 1.36146 9.02273 1.68518 9.02273 2.02273V2.08C9.02354 2.28477 9.08422 2.48484 9.19729 2.65557C9.31035 2.8263 9.47087 2.96024 9.65909 3.04091C9.85103 3.12562 10.0639 3.15089 10.2704 3.11346C10.4768 3.07603 10.6673 2.97761 10.8173 2.83091L10.8555 2.79273C11.0943 2.55391 11.4182 2.41975 11.7559 2.41975C12.0936 2.41975 12.4175 2.55391 12.6564 2.79273C12.8952 3.03154 13.0293 3.35545 13.0293 3.69318C13.0293 4.03092 12.8952 4.35482 12.6564 4.59364L12.6182 4.63182C12.4715 4.7818 12.3731 4.97228 12.3356 5.17872C12.2982 5.38515 12.3235 5.59806 12.4082 5.79V5.84091C12.5736 6.22527 12.9504 6.47536 13.3691 6.47727H13.4773C13.8148 6.47727 14.1385 6.61136 14.3772 6.85005C14.6159 7.08873 14.75 7.41245 14.75 7.75C14.75 8.08755 14.6159 8.41127 14.3772 8.64995C14.1385 8.88864 13.8148 9.02273 13.4773 9.02273H13.42C13.2152 9.02354 13.0152 9.08422 12.8444 9.19729C12.6737 9.31035 12.5398 9.47087 12.4591 9.65909Z" stroke="#10B981" stroke-width="1.5" stroke-linecap="round" stroke-linejoin="round"/>
</svg>
